# xmcd
#
# Track frame offsets: 
#        150
#        17445
#        33560
#        42735
#        57927
#        76315
#        92522
#        105322
#        119207
#        129368
#        134173
#        150570
#        158324
#        169190
#        186978
#        202262
#
# Disc length: 2931 seconds
#
# Revision: 0
# Processed by: cddbd v1.5.2PL0 Copyright (c) Steve Scherf et al.
# Submitted via: ExactAudioCopyFreeDBPlugin 1.0
#
DISCID=d80b7110
DTITLE=Café Unterzucker - Bitte, Mammi, hol mich ab
DYEAR=2015
DGENRE=Indie
TTITLE0=Bitte, Mammi, hol mich ab
TTITLE1=Autogrill
TTITLE2=Freiheitslied - Intro
TTITLE3=Freiheitslied
TTITLE4=Sommerschwein
TTITLE5=Eis am Stecken
TTITLE6=Der Krapfen
TTITLE7=5 Jahre auf See
TTITLE8=Endlich! Die Ferien sind vorbei
TTITLE9=A Gstingada Mo
TTITLE10=Sonnenbrand
TTITLE11=Nur der Mensch - Intro
TTITLE12=Nur der Mensch
TTITLE13=Gluckseligkeit
TTITLE14=Auf der Reise
TTITLE15=Outro
EXTD=
EXTT0=
EXTT1=
EXTT2=
EXTT3=
EXTT4=
EXTT5=
EXTT6=
EXTT7=
EXTT8=
EXTT9=
EXTT10=
EXTT11=
EXTT12=
EXTT13=
EXTT14=
EXTT15=
PLAYORDER=
